<?xml version="1.0" encoding="utf-8"?>
<!-- Generator: Adobe Illustrator 21.0.1, SVG Export Plug-In . SVG Version: 6.00 Build 0)  -->
<svg version="1.1" id="Layer_1" xmlns="http://www.w3.org/2000/svg" xmlns:xlink="http://www.w3.org/1999/xlink" x="0px" y="0px"
	 viewBox="0 0 873.1 397.1" enable-background="new 0 0 873.1 397.1" xml:space="preserve">
<g id="Layer_4">
	<g>
		<path d="M469,260.2c-9.7-18.7-28.4-31.9-49.3-34.5c-2.7-0.3-5.4-0.5-8.1-0.5c-20,0-39.2,9.6-51.3,25.5c-3.5,4.7-6.5,9.8-8.6,15.2
			c8.3,31.7-0.6,66.2-23.2,89.9c-21.2,22.2-52.3,33-82.6,28.6c-23.5-3.4-45.2-15.8-60.2-34.2c-15.7-19.2-23.3-44.2-21-68.9
			c2.8-30.1,20.3-57.6,46.2-73.1c3.4-2,7-3.9,10.6-5.5c-8.6,0-101.8,0-112.2,0c-14.4,0-28.6-2.7-41.7-8.8
			c-16.1-7.4-29.9-19.4-39.7-34.1c-10-15.2-15.5-33.1-15.7-51.2C12,90.3,17.1,72.2,26.9,56.7c9.4-15,23-27.2,38.9-34.9
			c8.1-4,16.8-6.8,25.7-8.3c7.1-1.2,14.2-1.3,21.4-1.3c2.3,0,4.5,0,6.8,0V0c-4.2,0-8.4,0-12.6,0c-8.6,0-17.2,1.1-25.6,3.2
			C65.4,7.2,50.3,15,37.7,25.8C25.2,36.4,15.2,50,8.7,65.1c-6.8,15.7-9.7,33-8.4,50.1c1.2,16.8,6.4,33.2,15.1,47.6
			c8.5,14.1,20.2,26.1,34,35c14.1,9.1,30.3,14.8,47,16.5c8.7,0.9,17.6,0.6,26.4,0.6c0,0,57.9,0,60.2,0c-11,11.2-19.5,24.8-24.7,39.6
			c-5,14.2-6.9,29.4-5.7,44.4c1,12.4,4.2,24.7,9.5,36c5.1,11,12.1,21.2,20.5,29.9c8.4,8.7,18.3,15.9,29.1,21.3
			c11.1,5.6,23.2,9.2,35.5,10.6c15.7,1.8,31.8,0.2,46.7-4.9c15.8-5.3,30.2-14.4,42-26.2c11.1-11.2,19.7-24.8,25-39.7
			c5.8-16.3,7.5-33.9,5.1-51c-0.4-2.8-0.9-5.5-1.5-8.2c2.5-4.6,5.3-9,8.9-12.9c4.2-4.5,9.1-8.2,14.6-11c10.8-5.5,23.3-7,35.1-4.4
			c10.7,2.4,20.4,8.1,27.7,16.2c8.6,9.6,13.3,22.1,13.3,35c0,9.3,0,18.6,0,27.9c0,16.3,0,32.6,0,48.9c0,10,0,20,0,30
			c0,0.2,0,0.3,0,0.5h12.2c0-7.2,0-14.4,0-21.6c0-14.8,0-29.7,0-44.5c0-12.3,0-24.7,0-37c0-2.1,0.1-4.1,0-6.2
			C475.8,278.2,473.4,268.7,469,260.2z"/>
		<path d="M763.9,342.4l107.6-108.1c-12-19.8-30.4-35.5-51.9-44.1c-10.5-4.2-21.8-6.7-33.1-7.4c-3.5-0.2-6.9-0.2-10.4-0.2
			c-10.4,0-20.8,0-31.3,0c-10.8,0-21.6,0-32.4,0c-6.4,0-12.8,0-19.2,0c-0.8,0-1.7,0-2.5,0c14.3-14.8,24.3-33.6,28.2-53.9
			c3.8-19.5,2.2-40.1-4.9-58.7c-4-10.4-9.6-20.2-16.5-28.9l0,0c-15.7-19.7-38.3-33.6-63-38.5c-10.2-2-20.5-2.1-30.8-2.1
			c0,0-96.8,0-96.9,0v159.8c-6.3,0-12.7,0-19,0c-2.3,0-4.6,0-6.9,0c-6.7-0.1-13.4-1.4-19.8-3.2c-13.7-4-27.2-10.9-37.5-20.9
			c-7.8-7.5-13.7-17.2-13.8-28.3c0-9,0-18.1,0-27.1c0-16.4,0-32.9,0-49.3c0-10.2,0-20.3,0-30.5c0-0.2,0-0.3,0-0.5h-12.2
			c0,3.2,0,6.3,0,9.5c0,7.8,0,15.6,0,23.4c0,9.7,0,19.4,0,29c0,8.9,0,17.9,0,26.8c0,5.6,0,11.1,0,16.7c0,6.6,1.3,12.9,4.1,18.9
			c5.4,11.5,14.5,21.1,24.6,28.6c11.7,8.7,25.3,14.8,39.6,17.5c8.6,1.6,17.2,1.5,25.9,1.5c8.5,0,27.1,0,27.1,0V12.6h94.5
			c16.2,0,32.2,4.2,46.4,12.1c14.1,7.9,26,19.3,34.5,32.9c8.4,13.4,13.3,28.7,14.2,44.5c1,16.6-2.4,33.4-9.8,48.3
			c-7.8,15.6-20,29-34.7,38.3c-3.6,2.3-7.3,4.3-11.2,6c10.9,0,21.8,0,32.7,0c7.6,0,15.3,0,22.9,0c14.9,0,29.7,0,44.6,0
			c9.2,0,18.4,0,27.6,0c14.7,0.1,29.3,3.6,42.3,10.3c11.8,6,21.8,14.4,30.4,24.4c0.9,1.1,1.8,2.1,2.7,3.2L742.9,346.3
			c8.8,5,18.7,7.8,28.8,8.2c1.8,0.1,3.6,0.1,5.4,0.1c7,0,13.9,0,20.9,0c10.4,0,20.7,0,31.1,0c9.7,0,19.4,0,29.2,0
			c4.9,0,9.8,0,14.7,0c0.1,0,0.1,0,0.2,0v-12.2H763.9z"/>
		<path d="M824,385.4c-11.3,0-22.6,0-34,0c-5.2,0-10.5,0-15.7,0c-12.5,0-25.1,0.4-37.6,0.7c-0.3,0-0.7,0-1,0l-3.2-0.8
			c-3.6,0-7.2,0-10.8,0c-8.7,0-17.4,0-26,0c-10.8,0-21.5,0-32.3,0c-9.9,0-19.8,0-29.6,0c-5.9,0-11.8,0-17.7,0
			c-12.9,0-25.5-2.1-37.5-7c-16.9-6.9-31.5-18.6-42-33.4c-9.2-12.9-15-28.2-16.8-43.9c-1.8-15.6,0.3-31.6,6-46.2
			c7.2-18.1,20.1-33.8,36.3-44.5c4.1-2.7,8.4-5.1,12.9-7.1c-8.3,0-16.6,0-24.9,0c-7.7,0-15.5,0-23.2,0c-10.5,0-21,0-31.4,0
			c-3.5,0-7,0-10.5,0c-10,0-19.8-1-29.5-3.3c-22.4-5.5-43.7-16.9-60.3-32.9c-14.7-14.1-26.1-32.5-27.9-53.1
			c-0.6-6.3-0.3-12.7-0.3-18.9c0-11.4,0-22.8,0-34.2c0-12.4,0-24.7,0-37.1c0-7.4,0-14.8,0-22.2c0-0.4,0-0.7,0-1.1h-12.2v53.8
			c-3.7-4.6-7.4-9.2-11-13.8c-7.5-9.3-16.3-17.4-26.4-23.8C296.2,3.3,270.6-2.3,245.8,0.9c-21.9,2.8-42.7,12.6-58.9,27.5
			s-27.7,34.8-32.4,56.4c-2.7,12.4-3.1,25.2-1.4,37.8c1.1,7.4,2.9,14.8,5.5,21.8c1.5,4.1,3.3,8.1,5.1,12.1c0.5,1.1,1,2.2,1.5,3.3
			c-10,0-43.4,0-50.1,0c-3.6,0-7.3,0.1-11-0.1c-20-1.2-37.9-14.3-45.3-32.8c-7.6-18.9-3.2-41,10.9-55.6c6.8-7.1,15.5-12.2,25-14.5
			c7.4-1.9,14.9-1.6,22.4-1.6c0.9,0,1.7,0,2.6,0V43c-8.8,0-17.6-0.4-26.2,1.5C81.2,47.2,69.7,53.7,61,62.8
			c-8.8,9.1-14.8,20.8-17,33.3c-2.3,12.9-0.6,26.3,4.8,38.2c5.2,11.4,13.8,21.2,24.5,27.8c10.2,6.4,22.2,9.8,34.2,9.8
			c4.2,0,8.3,0,12.5,0c8.6,0,63.5,0,68.7,0c0.3,0,0.5,0,0.8,0c-18.3-19.9-27.4-47.1-24.7-74.1c2.2-22.4,12.6-43.6,28.9-59.1
			C210,23.1,231.5,13.6,254,12.3c22.9-1.3,45.9,5.8,64.1,19.9c17.9,14,30.5,34.2,35,56.5c0.5,2.6,0.9,5.1,1.2,7.7
			c-0.2,2.8-0.1,5.6-0.1,8.4c0,6.2,0,12.5,0,18.7c0,18.8,0,37.5,0,56.3c0,11.3,0,22.7,0.1,34c10.7-8,22.9-14,36-17
			c14.5-3.3,29.8-3.3,44.3,0.3c13.3,3.3,25.9,9.5,36.6,18.1c12.6,10.1,22.5,23.3,28.7,38.2c3.2,7.6,5.3,15.7,6.4,23.9
			c0.7,5.6,0.7,11.2,0.8,16.8c0.1,3.6,0,7.1,0,10.7c0,8,0,15.9,0,23.9c0,9.6,0,19.2,0,28.8c0,8.4,0,16.8,0,25.3c0,4.6,0,9.2,0,13.7
			c0,0.2,0,0.4,0,0.6h12.2V343c3.6,4.4,7.1,8.9,10.7,13.3c6.5,8.1,14,15.4,22.6,21.4c18.2,12.9,40.1,19.7,62.3,19.7
			c4.5,0,9,0,13.6,0c9.8,0,19.5,0,29.3,0c13.2,0,26.5,0,39.7,0c15.1,0,30.2,0,45.3,0s30.1,0,45.2,0c13.4,0,26.8,0,40.3,0
			c10,0,20,0,30,0c4.9,0,9.7,0,14.6,0c0.2,0,0.4,0,0.6,0v-12.2c-5.1,0-10.2,0-15.4,0C846.5,385.4,835.2,385.4,824,385.4z
			 M395.1,183.5c-10,1.5-19.7,4.5-28.9,8.8c0-11,0-22,0-33c0-2.3,0-4.6,0-6.8c5.6,6.7,11.1,13.7,17.2,20c3.8,3.9,7.7,7.6,11.9,11
			H395.1z M513,252.1c-4.4-8.6-8.6-17.2-14.2-25.1c-2.9-4.1-6.1-7.9-9.6-11.5c5.8,0,11.6,0,17.4,0c6.9,0,13.8,0,20.7,0
			c3.3,0,6.5,0,9.8,0c-6,6.2-11.2,13.1-15.6,20.5c-2.3,3.8-4.2,7.9-6.3,11.8C514.5,249.2,513.8,250.7,513,252.1z"/>
		<path d="M582.2,346c10.2,5.9,21.7,8.6,33.5,8.6c5.9,0,11.9,0,17.8,0c9.7,0,19.3,0,29,0c9.3,0,18.5,0,27.8,0c4.7,0,9.4,0,14.1,0
			c0.1,0,0.1,0,0.2,0c-2.1-2.3-4.1-4.8-6.2-7.2l113.1-113.6c-4.8-2.7-9.9-4.8-15.3-6.2l0,0c-7.2-1.9-14.4-2.1-21.8-2.1
			c-7.3,0-14.6,0-21.9,0c-9.7,0-19.4,0-29.1,0c-8.7,0-17.3,0-26,0c-4.3,0-8.6,0-13,0c-0.1,0-0.1,0-0.2,0c2.6,2.8,5,5.8,7.4,8.8
			L580.9,345.2C581.3,345.5,581.8,345.7,582.2,346z M611.7,331.7l93.9-93.9h85L686.3,342.4H601L611.7,331.7z"/>
		<path d="M324,204.2c0-6.9,0-13.8,0-20.6c0-2,0-4.1,0-6.1c-10.6,9.8-23.5,17.1-37.4,21.3c5.8,1.7,11.4,4,16.7,6.8l8.5-3.8v8.8
			c2.3,1.5,4.5,3.1,6.7,4.9h5.4L324,204.2L324,204.2z"/>
		<path d="M303.2,60c-9.4-8.6-21.3-14.4-33.9-16.3c-3.2-0.5-6.5-0.7-9.7-0.7c-13,0-25.8,4-36.4,11.3c-10.4,7.1-18.5,17.2-23.3,28.9
			c-5,12.3-6.1,26.1-3.1,39c3,12.7,9.9,24.4,19.5,33.1c10.1,9.2,23,14.9,36.6,16.4c14.9,1.6,30-2.2,42.5-10.5
			c10.8-7.2,19.3-17.7,24.1-29.7c5-12.4,5.9-26.3,2.7-39.3C319.2,79.8,312.5,68.6,303.2,60z M310.8,118
			c-4.4,21.1-21.9,37.9-43.3,41.1c-2.6,0.4-5.3,0.6-8,0.6c-21.7,0-41.6-13.9-49.1-34.3c-7.6-20.7-1.1-44.4,15.9-58.4
			c16.9-14,41.5-15.8,60.3-4.4C305.4,74.1,315.2,96.5,310.8,118z"/>
		<path d="M662.4,150c13-15.2,18.3-36.1,14.1-55.7c-4.2-19-17.1-35.5-34.6-44.1c-8.8-4.3-18.6-6.6-28.4-6.6h-63.3
			c-0.1,0-0.3,0-0.4,0v129c0,0,64.3,0.1,70.4-0.4C636.5,170.5,651.7,162.4,662.4,150z M620.1,160c-2.2,0.3-4.5,0.4-6.7,0.4h-51.6
			V55.7c8.7,0,43.6-0.1,52.4,0c17.6,0.3,34.3,9.7,43.6,24.6c9.5,15.1,10.5,34.6,2.6,50.6C652.8,146.6,637.4,157.7,620.1,160z"/>
		<path d="M274.2,227.2c-24.5-5.7-50.7,3.8-65.9,23.8c-15.9,20.8-17.5,50-3.9,72.4c12.7,20.9,36.7,33.2,61.1,30.9
			c14.4-1.3,28-7.6,38.5-17.6c10.5-9.9,17.3-23.3,19.4-37.6c0.4-3,0.7-6.2,0.6-9.2c0-14.6-5.2-29-14.4-40.4
			C300.7,238.4,288.1,230.5,274.2,227.2z M311.9,290.4c-0.1,24.1-17.4,45.5-40.8,50.7c-20.1,4.5-41.4-3.5-53.7-20.1
			c-12.1-16.4-13.5-38.9-3.4-56.6c10-17.6,29.8-28.2,50-26.5c23.4,2,43.1,20,47.2,43.1C311.6,284.1,311.9,287.2,311.9,290.4z"/>
		<path d="M567.9,245.3c-13.1,13.5-19.5,32.2-17.8,50.9c0.9,9.6,4,19,9,27.2l88.5-88.5c-5.9-3.6-12.4-6.2-19.2-7.8
			C606.7,222.3,583.4,229.3,567.9,245.3z M569.8,262.7c0.1-0.1,0.1-0.2,0.2-0.3c1.9-3.1,4.2-6,6.7-8.6c4.5-4.6,9.8-8.3,15.5-11
			c0.2-0.1,0.5-0.2,0.7-0.3c0.6-0.3,1.1-0.5,1.7-0.7c0.6-0.2,1.2-0.5,1.7-0.7c0,0,0,0,0.1,0c5.8-2.1,11.9-3.2,18.1-3.2
			c3.8,0,7.6,0.4,11.2,1.2c0.1,0,0.3,0.1,0.4,0.1L563.4,302c-0.5-2.3-0.9-4.6-1.1-6.9c-1-11.4,1.6-22.6,7.4-32.1
			C569.7,262.9,569.7,262.8,569.8,262.7z"/>
	</g>
</g>
</svg>
